# xmcd
#
# Track frame offsets:
# 150
# 13095
# 29787
# 47898
# 61623
# 78035
# 93629
# 108961
# 121328
# 136375
# 153938
# 167640
# 180919
# 195019
# 211572
#
# Disc length: 3277 seconds
#
#
# Revision: 0
# Processed by: cddbd v1.5.1PL2 Copyright (c) Steve Scherf et al.
# Submitted via: FreeRIP 2.944 
#
DISCID=b00ccb0f
DTITLE=Varios Artistas - Rodeio Brasil 
DYEAR=2006
DGENRE=Country
TTITLE0=Abertura/Brasileira - Grupo Tradição
TTITLE1=Tô Nem Aí - Carlos Nando -  Guto
TTITLE2=Mrs. Robinson - Dois A Um
TTITLE3=Nóis Enverga Mais Não Quebra Gino e Geno
TTITLE4=Chorar de Saudade - As Leoas
TTITLE5=Quero Provar Que Te Amo -  João Bosco e Vinicius
TTITLE6=Galope de Paixão - Jayne
TTITLE7=Balanço Da Sanfona - Limão com mel
TTITLE8=Vou Tomar Todas - Lucas e Thiago
TTITLE9=Vou Beber Veneno - Gino e Geno
TTITLE10=O Chão Balança - João Victor e Vinicius
TTITLE11=É Nóis Na Fita - Ricardo e Rivaldo
TTITLE12=Na Boca Do Brasil - Leomar e Luan
TTITLE13=Nóis Capota Mais Não Breca- Jad e Jefferson
TTITLE14=Pout Porri: Chorou a Gaita/Pensando Em Você/Macarena - Grupo Tradição
EXTD=emerson@betim.mg.gov.br
EXTT0=
EXTT1=
EXTT2=
EXTT3=
EXTT4=
EXTT5=
EXTT6=
EXTT7=
EXTT8=
EXTT9=
EXTT10=
EXTT11=
EXTT12=
EXTT13=
EXTT14=
PLAYORDER=
